<?xml version="1.0" standalone="no"?>
<!DOCTYPE svg PUBLIC "-//W3C//DTD SVG 20010904//EN"
 "http://www.w3.org/TR/2001/REC-SVG-20010904/DTD/svg10.dtd">
<svg version="1.0" xmlns="http://www.w3.org/2000/svg"
 width="555.000000pt" height="555.000000pt" viewBox="0 0 555.000000 555.000000"
 preserveAspectRatio="xMidYMid meet">
<metadata>
Created by potrace 1.11, written by Peter Selinger 2001-2013
</metadata>
<g transform="translate(0.000000,555.000000) scale(0.100000,-0.100000)"
fill="#000000" stroke="none">
<path d="M1927 5352 l-197 -197 821 -820 c451 -451 847 -852 879 -891 132
-159 230 -341 285 -529 36 -120 45 -291 21 -384 -39 -152 -107 -268 -238 -407
-312 -329 -596 -396 -993 -234 -115 46 -259 131 -362 211 -43 34 -453 435
-910 893 l-833 831 -200 -200 -199 -199 842 -841 c463 -463 876 -868 917 -902
241 -194 530 -339 790 -395 137 -30 385 -36 522 -13 199 33 399 113 564 225
40 27 77 50 81 50 5 0 185 -177 402 -394 l394 -394 -19 -64 c-28 -96 -24 -232
9 -327 62 -177 212 -312 389 -351 80 -18 238 -8 307 18 111 43 214 130 275
231 55 92 70 152 71 276 0 96 -4 120 -28 185 -62 169 -210 299 -386 340 -67
16 -230 8 -288 -13 l-42 -16 -400 400 -400 400 56 82 c171 250 253 537 240
842 -12 274 -91 521 -251 785 -127 209 -168 253 -1055 1143 -471 471 -858 857
-861 857 -3 0 -94 -89 -203 -198z"/>
</g>
</svg>
